# xmcd CD database file
#
# Track frame offsets:
#	150
#	25082
#	48182
#	68412
#	96572
#	117600
#	141542
#	162690
#	182630
#	206695
#
# Disc length: 3020 seconds
#
# Revision: 1
# Processed by: cddbd v1.5.2PL0 Copyright (c) Steve Scherf et al.
# Submitted via: jetAudio 7
#
DISCID=950bca0a
DTITLE=Mỹ Linh - Tóc Ngắn 2 - Vẫn Mãi Mong Chờ
DYEAR=1900
DGENRE=Folk
TTITLE0=Còn Lại Với Mùa Thu
TTITLE1=Làm Quen
TTITLE2=Mùa Đông Sẽ Qua
TTITLE3=Vẫn Mãi Mong Chờ
TTITLE4=Trăng Trong Phố
TTITLE5=Còn Của Mẹ
TTITLE6=Mơ Hồ
TTITLE7=Mưa Hát
TTITLE8=Nửa Vầng Trăng
TTITLE9=Khúc Giao Mùa
EXTD=
EXTT0=
EXTT1=
EXTT2=
EXTT3=
EXTT4=
EXTT5=
EXTT6=
EXTT7=
EXTT8=
EXTT9=
PLAYORDER=
